<svg xmlns="http://www.w3.org/2000/svg" xmlns:xlink="http://www.w3.org/1999/xlink" viewBox="0 0 1283.69 1011.66"><defs><style>.cls-1{fill:none;}.cls-2,.cls-20{fill:#201f1f;}.cls-3{fill:#020203;}.cls-4{fill:#f3c9b0;}.cls-5{fill:#c39a85;}.cls-6{fill:#99d6ec;}.cls-7{fill:#98d4e9;}.cls-8{fill:#99d6eb;}.cls-9{fill:#98d4ea;}.cls-10{fill:#97d3e8;}.cls-11{fill:#98d5ea;}.cls-12{fill:#95cfe4;}.cls-13{fill:#fefefe;}.cls-14{fill:#ac5c51;}.cls-15{fill:#ab5c51;}.cls-16{fill:#fdfcfc;}.cls-17{fill:#fdfbfb;}.cls-18{clip-path:url(#clip-path);}.cls-19{fill:#515151;}.cls-20,.cls-21{opacity:0.35;}.cls-22{opacity:0.3;}</style><clipPath id="clip-path"><path class="cls-1" d="M536.66,624.7s-30.51,15.51-45.57,69.45c0,0,42,8.64,66,35.64a24.94,24.94,0,0,1,7.73-11.36l.32,51.14c12,4.1,68,8.22,82,8.22s64.22-3.67,71.22-5.67l.36-51.57s3.84,2,5.42,8.24c0,0,24.78-26.79,67.3-34.11,0,0-4.73-40.34-44.53-70C746.86,624.66,650.62,631.83,536.66,624.7Z"/></clipPath></defs><g id="Layer_2" data-name="Layer 2"><g id="Layer_1-2" data-name="Layer 1"><path class="cls-2" d="M536.66,624.7c-19.27-3.38-38.64-6.25-57.77-10.24-52-10.85-101.06-28.49-142.44-63.33C316.1,534,299.9,513.47,286.85,489.8c-96.12,2.92-191,15.09-284.48,37.81,91.41-27.93,185.34-39,281.5-42.77-1.93-4.54-3.41-8.09-4.93-11.62s-3.17-7.32-5-11.44c-91.83-4-183.13,1.7-274,16.06,89.38-20,180-24.12,270.73-21.28-25.33-104.42-35.08-206.09,44.58-295.12C296.43,107.87,301.58,54.79,322,1.71c15.53-3.7,30.65-.78,45.56,3C408,14.78,443.65,35,478.28,57.41c3.34,2.16,6.63,4.38,9.75,6.45Q632.09,26.57,775.9,60.29c49.92-30.21,99-62.11,161-60,19.39,49.83,25.22,99.05,10.79,150.48,20.57,21.15,37.92,45,50,72.57a236.16,236.16,0,0,1,20,91.41c.84,47.55-1.37,94.85-13.54,142,94.08-3.39,187.23.55,279.57,18.72-1.07,7.52-6,3.7-8.55,3.23a1061.64,1061.64,0,0,0-107.92-14,1264.28,1264.28,0,0,0-164.49-2.68c-2.43,6.88-5,14-8,22.53,97.39,3.61,193.13,14.59,286.22,42.77-31.26-4.77-61.89-13-93.08-18.28-32.42-5.47-64.93-10-97.65-13.29-32.45-3.26-65-5-97.67-6.29-34.09,75.73-99.77,106.25-175,123.4-23.37,5.33-47.22,7.56-70.77,11.74-3,3.48-7.21,3.12-11.13,3.12q-90.36.15-180.72,0C548.82,627.71,542.42,627.82,536.66,624.7Z"/><path class="cls-2" d="M841.08,961.05a20.55,20.55,0,0,1-2.5,1.71,22.08,22.08,0,0,1-7.1,2.65c-6.26,1.26-12.86.21-19.19-.16-12.75-.73-25.38-3.06-37.12-8.65l-.56-.23-1.49-.63C745.94,944,732.92,922.44,732,893c-.49-15.14-.27-30.31,0-45.46,0-.22,0-.43,0-.65s0-.63,0-.95c-.63-25.35-.08-50.7-.28-76-.1-13.21-1.83-26.17-6.28-38.66-1.21-3.4-2.1-7.08-6.67-10.7-.85,42.28.17,83.35-.56,124.39,0,.26,0,.51,0,.77s0,.41,0,.62c.38,29.41,0,58.83.17,88.25.09,19.35,4.83,36.69,21.47,48.76l.32.5c.12.18.23.36.33.53,7.49,12.14,5.31,19.84-7.33,25.68l-1.78.77-.44.12a21.92,21.92,0,0,1-5.64.72l-1,0-.82-.09c-18.66-2.16-35.11-9.58-50.21-20.32-.48-.34-1-.68-1.44-1-.75-.54-1.49-1.09-2.23-1.65-15.11-14-22.32-30.87-22.24-51.75q.19-47.22.44-94.43c.19-42.18.3-84.37.11-126.55,0-4,.36-8-.47-11.86-.12-.36-.24-.72-.37-1.08-.68-2-1.58-3.82-4-4.65-3.15-.62-5.07.82-6.29,3.4h0a11.81,11.81,0,0,0-.5,1.19c-.93,3.77-.5,7.5-.52,11.19-.19,43.26,0,86.52.17,129.78q.19,46,.24,92c0,20.83-7.26,38.43-22.2,52.86-.63.48-1.26,1-1.89,1.42l-1.41,1.06c-15.47,11.31-32.14,19.37-51.43,20.34h0c-1.85.09-3.72.12-5.62.08-.75,0-1.51,0-2.27-.08-.24,0-.47,0-.71-.08a10.51,10.51,0,0,1-1.46-.3l-.69-.2c-12.13-7.63-13.3-14.46-4.34-27,.08-.1.15-.21.23-.32.19-.27.39-.54.6-.82,16.89-10.47,20.7-26.54,20.47-45.07q-.57-45.57,0-91.16c0-.18,0-.36,0-.54s0-.47,0-.7c-.71-41.83.26-83.68-.53-126.83-4.68,3-5.71,6.62-6.88,10-4.31,12.24-6,24.93-6.08,37.85-.21,26.81.32,53.63-.26,80.44v.07c0,.34,0,.67,0,1,.08,15,.35,30-.07,45-.83,29.41-14.06,50.7-40.66,62.91l-.65.3-1.71.75c-17.6,7.29-35.9,9.62-54.63,8.68,0,0,0,0,0,0-1.26-.06-2.53-.14-3.8-.24l-1.5-.11c-6-1.48-10.8-4.41-11.22-11.18s3.56-11.21,9.12-14.37c4.23-2.39,8.74-4.26,13-6.66,16.92-9.6,22.05-24.22,25.28-43.53,1.37-8.21,2.37-27.21,2.67-32.76.75-29.77,1-59.55-.15-89.32-.35-6.18-.67-12.36-.87-18.53v-.2c-.21-6.1-.3-12.2-.17-18.3v-.07A214.39,214.39,0,0,1,488,705.94s0,0,0,0c.2-1.54.42-3.08.67-4.62l.09-.56a8,8,0,0,1,2-3.76c5.26-16.14,10.13-32.45,20.44-46.36a34.19,34.19,0,0,1,3.42-3.5c8.89-8.79,20.85-9,31.94-10.55a375.14,375.14,0,0,1,58.89-4.1c12.55.19,25.16-1.11,37.62-1.05,29,.14,58.38,0,86.54,9,26.21,8.42,46.14,24.58,58.73,49.35.88,1.73,1,3.93,3.13,4.9,4,13.81,4,28.07,4.09,42.22.41,39.33.42,78.66.59,118,0,7.26,1,24.26,2.74,31.8,4.65,20.39,10,37,28.35,47.63,4.18,2.42,8.73,4.26,12.21,7.78C845.36,948.18,845.86,953.75,841.08,961.05Z"/><path class="cls-2" d="M483.8,767.3C415.09,783.18,347,770.74,308,700.7c-3.88-7-8-13.85-11.89-20.8-12.71-22.43-29.9-40.09-53.5-51.28-9-4.25-17.78-9.2-21.48-19.09,1.51-7.48,7-9.39,12.67-10.42,26.88-4.87,49.24,5.42,69.64,21.47,13,10.2,22.44,23.36,31.13,37.27,18.63,29.81,44.2,49.82,80.14,53.89,25.38,2.87,49.27-3.38,72.41-13.26,3,3.52,1.11,6.81-.43,10.09-1.25,1.66-3.19,2.15-5.06,2.79s-3.72,1.42-4.55,3.76c-.13,5.81,8,5,8.75,10.33,1,11.66.28,23.26.46,34.85A9.87,9.87,0,0,1,483.8,767.3Z"/><path class="cls-3" d="M485.36,709.24l1.8-10.76c.53-2,2.17-1.41,3.52-1.49-2.3,21.2-1.62,42.49-1.86,63.76,0,2.18-1,4.35-1.58,6.53l-3.44,0q0-22.38-.07-44.76C480.28,717.62,481.69,713.29,485.36,709.24Z"/><path class="cls-4" d="M924.83,413.79c1.51,32.65-2.26,64.51-15.85,94.51-19.42,42.85-55.53,64.28-99.22,75.45C762.24,595.9,713.61,596.48,665.05,597c-59.45.6-118.89.11-177.33-13.2A259.38,259.38,0,0,1,443,569.39c-66.72-28.57-93.56-83.79-91.25-153.89,3.79-38.52,23.8-67.71,53-91.42,20-16.26,44.06-21.41,69-22.6,31.76-1.51,63.38,1.55,95,4.37,40.72,3.63,81.41,5.07,122.32,1.24,37-3.46,74-7.3,111.23-5.81,30.8,1.24,58.69,10,81,32.15S921.74,381.42,924.83,413.79Z"/><path class="cls-5" d="M924.83,413.79c-5.13-21.83-13.65-42-27.22-60.14C873.17,321,841,304.59,800.19,303.79c-38.61-.75-76.83,3.76-115.2,6.68a624.78,624.78,0,0,1-100.79-.89c-37.77-3.22-75.57-7.48-113.6-5.55-47.86,2.42-80.62,27.84-103.52,68.28-7.67,13.54-12,28.15-15.34,43.19-.14-33.81,16.09-60.34,37.46-84.67,23.88-27.17,55-37.36,89.94-38.91,50.66-2.24,101,5.52,151.54,5.64,36.61.09,73-3,109.52-4.95,34.63-1.82,69.62-4.52,103.37,7.8C886.35,316,926,371.2,924.83,413.79Z"/><path class="cls-6" d="M340.16,695.13a9.09,9.09,0,0,1-5.59-6.54c-1.52-6.77,6.77-11.46,11.81-6.69a20.75,20.75,0,0,1,2,2.18l.09.11C352.9,689.87,346.78,698,340.16,695.13Z"/><path class="cls-7" d="M379.55,712.36a6.23,6.23,0,0,1-1,6.69c-1.64,1.77-4,2.24-6.73,1.8-4.77-.77-8.35-3-10.28-7a6.28,6.28,0,0,1,.56-6.68c1.72-2.1,4.44-2.38,7.48-1.91C374.43,706,377.85,708.36,379.55,712.36Z"/><path class="cls-8" d="M408.24,717.28c9,1.61,6.92,15.35-2.16,14.09a25.54,25.54,0,0,1-3.23-.69c-3.59-1-6.92-3.19-6.71-7.74.19-3.84,3-5.33,6.33-5.72A19.8,19.8,0,0,1,408.24,717.28Z"/><path class="cls-8" d="M446.81,717.54c9,.47,8.71,14.16-.28,14.3a25.19,25.19,0,0,1-4.34-.37c-3.61-.56-6.57-2.39-6.74-6.51s3-6,6.4-6.88A17,17,0,0,1,446.81,717.54Z"/><path class="cls-9" d="M315.22,664.88a8,8,0,0,1-3.14-5.06c-1.27-7,8-10.84,12.17-5.16.22.3.44.61.65.93l.07.11C329.08,662,321.19,669.46,315.22,664.88Z"/><path class="cls-10" d="M291.23,632.45a4.41,4.41,0,0,1,1.85-4.88c1.49-.88,3.32-.73,5.45.26,3.16,1.49,5.32,3.54,6.18,6.33a4.52,4.52,0,0,1-2.76,5.58C296.19,641.8,292.93,639.49,291.23,632.45Z"/><path class="cls-11" d="M483.65,709l.17,13.57a10.71,10.71,0,0,1-6.44-.7,6.86,6.86,0,0,1-2.65-10C476.51,709.31,479.55,708.46,483.65,709Z"/><path class="cls-12" d="M275.23,622.46a6,6,0,0,1-1.54-.67c-5.2-3.16-.93-11.32,4.47-8.51a7.64,7.64,0,0,1,.89.55C283.33,616.89,280.29,623.87,275.23,622.46Z"/><path class="cls-13" d="M863.44,430.77c-1.14,24.5-6.63,48.77-25.86,68-22.61,22.62-53,20.82-72.79-4.36C736,457.74,737,395.54,767,360c21.36-25.34,57.09-22.57,77.37,5.69C858.09,384.76,862.79,406.34,863.44,430.77Z"/><path class="cls-13" d="M542.32,427.65c.62,23.42-4.22,44.64-17.91,62.93-24.94,33.32-61.27,31.94-84.46-2.79-24.48-36.68-21.13-98.38,6.93-127.35,26.08-26.93,60.35-22.89,80.11,9.31A101.17,101.17,0,0,1,542.32,427.65Z"/><path class="cls-14" d="M668.5,535.37a28.83,28.83,0,0,1,3.94,2.65,13.15,13.15,0,0,1,1.64,2.63c-5,16.05-17.58,25.83-33.35,26.23-17.64.45-30-8-36.57-25.17.12-3,1.82-4.63,5.76-5.72C628.73,565.74,648.72,566.78,668.5,535.37Z"/><path class="cls-14" d="M624.46,504.13c.43-8,7.36-14.61,15.07-14.37,8.15.26,14.64,7.46,14.34,15.95-.26,7.72-7.42,14.51-15.06,14.29C630.76,519.77,624,512.32,624.46,504.13Z"/><path class="cls-15" d="M757.72,428.59c.23-16.19,4.07-32.33,16.32-45.35,14.24-15.13,34.17-14.63,47.9.94,19.95,22.63,20.58,65.84,1.29,89.16-15.3,18.49-37.68,18.05-52.35-1.1C761.28,459.7,757.87,445.19,757.72,428.59Z"/><path class="cls-15" d="M449.05,422.82a60.08,60.08,0,0,1,17-40.43c13.5-13.8,32-13.57,45.54.16,22.36,22.61,22.52,70.68.3,93.55-14.54,15-34.06,14.36-47.86-1.47C454.22,463.33,449,447.64,449.05,422.82Z"/><path class="cls-16" d="M795.12,404c-.6,5.86-3.66,9.66-9.79,9.69-6.5,0-10.08-3.71-10.07-10.23,0-6.19,3.86-9.8,9.65-9.87C791.2,393.53,794.8,397.42,795.12,404Z"/><path class="cls-17" d="M483.37,403.61c-.87,6.85-4.49,11.4-11.45,11.47s-11.32-4.36-11.38-11.22,3.93-11.17,11.17-11.26S482.29,397,483.37,403.61Z"/><g class="cls-18"><rect class="cls-19" x="421.74" y="468.25" width="679.9" height="436.12"/><path class="cls-20" d="M570.83,714.66v57.85h-7.91V720.32c-3.41,3.78-4.53,8.14-4.85,12.87-17.31-.29-16.1-24.07-61.1-37.07,0,0,25.8.2,49.8,19.8a5.17,5.17,0,0,0,2.8,1.3c1.2.2,2.4.9-1.6-3.1-5.5-5.5-18.16-14.75-32.41-17.15,0,0,17.57-2.2,39.57,18.8C555,715.67,564.83,711.49,570.83,714.66Z"/><path class="cls-21" d="M513.68,646.34c4.12-1.29,10.56-14.8,64.94-20-13.24-.41-27.15-1-42-1.69C534.7,625.7,526.79,630.29,513.68,646.34Z"/><path class="cls-21" d="M645.55,624.66c-28-.68-49.83.11-66.93,1.73,35.74,1.1,66.51,1.12,96.31.55A149.39,149.39,0,0,0,645.55,624.66Z"/><path class="cls-21" d="M746.86,624.66c-24.75,1-48,1.81-71.93,2.28,51.78,9.4,75.55,45.43,86.6,65.52-9,2.94-22.73,9.38-33.17,23,0,0,18.93-18.5,34.25-21,2.06,3.82,3.63,6.94,4.82,9,.59-1.53,23.66-8,24-8.76C785.87,665.41,770.49,642.42,746.86,624.66Z"/><path class="cls-22" d="M718.67,720.55l-7.92-4.78v42.62c-14.23,4.56-39.33,12.92-110,11.18,40,3.37,78.13,5.09,110-6v1.22c-.47,3.33-5,12.86-39.07,21.13-42.13,10.21,42.9,1.79,42.9,1.79l-.45-2.81h4.28Z"/></g></g></g></svg>